<svg width="79" height="19" viewBox="0 0 79 19" fill="none" xmlns="http://www.w3.org/2000/svg">
<path d="M13.3154 18.1037L8.14965 18.0081C6.47704 17.9749 4.80032 18.0414 3.16059 17.6966C0.666063 17.1816 0.48935 14.6563 0.304417 12.538C0.0496221 9.55995 0.148253 6.5279 0.629076 3.57478C0.90031 1.91754 1.96881 0.929006 3.62087 0.821016C9.1976 0.430588 14.8113 0.476277 20.3757 0.65903C20.9634 0.675644 21.5552 0.767021 22.1346 0.870858C24.9949 1.37758 25.0648 4.23933 25.2497 6.64836C25.4346 9.0823 25.3566 11.5287 25.0031 13.946C24.7196 15.948 24.1771 17.626 21.8881 17.788C19.0196 17.9998 16.2168 18.1701 13.3401 18.1161C13.3401 18.1037 13.3236 18.1037 13.3154 18.1037ZM10.2784 13.0364C12.4401 11.7821 14.5606 10.5485 16.71 9.30243C14.5442 8.04808 12.4277 6.8145 10.2784 5.56845V13.0364Z" fill="#1E1E1E"/>
<path d="M66.684 15.8276C66.5853 16.2347 66.499 16.5545 66.4127 16.8951H64.3908V1.13245H66.7497V6.94738C66.873 6.78955 66.9346 6.72309 66.9881 6.65248C67.3908 6.09176 67.9127 5.72625 68.5867 5.58503C69.6593 5.3732 70.5757 5.85085 70.9004 6.89339C71.11 7.54134 71.2456 8.23498 71.262 8.912C71.2949 10.6523 71.2703 12.3885 71.2086 14.1288C71.184 14.6605 71.0237 15.2046 70.8223 15.703C70.1607 17.3478 67.999 17.597 66.9264 16.1724C66.8607 16.0851 66.799 15.9896 66.684 15.8276ZM66.799 11.4913V14.3739C66.799 14.8432 67.0456 15.1298 67.51 15.2378C67.9661 15.3458 68.336 15.1672 68.5209 14.7394C68.599 14.5608 68.6771 14.3739 68.6812 14.187C68.7264 12.4259 68.7675 10.6648 68.7799 8.89954C68.7799 8.57141 68.7018 8.23082 68.6031 7.911C68.4182 7.33366 67.9086 7.16337 67.4072 7.4998C67.0292 7.75732 66.799 8.12283 66.799 8.60879V11.4913ZM60.3881 5.80932H62.8579V16.9034H60.9305C60.8607 16.4839 60.7908 16.0519 60.7086 15.5452C60.5771 15.7404 60.499 15.865 60.4168 15.9896C59.7757 16.9242 58.8675 17.244 57.7949 17.0737C56.8785 16.9242 56.3278 16.2097 56.2045 15.0385C56.1675 14.6896 56.1511 14.3365 56.1511 13.9876C56.1428 11.3917 56.1511 8.7874 56.1511 6.19144V5.80101H58.6497V6.25375C58.6497 8.76248 58.6415 11.2671 58.6579 13.7758C58.6579 14.133 58.6949 14.5026 58.7565 14.8599C58.8264 15.2254 59.0894 15.3583 59.4428 15.3334C60.0141 15.2877 60.4086 14.8599 60.4086 14.2867V6.29943C60.3881 6.13745 60.3881 5.98792 60.3881 5.80932ZM43.3825 5.80101H45.8647V6.27036C45.8647 8.76663 45.8565 11.2587 45.873 13.7467C45.873 14.1039 45.9058 14.4736 45.9798 14.8225C46.0743 15.2337 46.3127 15.3666 46.7195 15.3126C47.2825 15.2337 47.6236 14.8391 47.6278 14.2617V6.31605V5.81763H50.0976V16.9034H48.1784C48.1086 16.4922 48.0387 16.0685 47.9483 15.5327C47.825 15.7196 47.7552 15.8276 47.6853 15.9398C47.0442 16.8909 46.1442 17.2398 45.0469 17.0695C44.1675 16.9366 43.6291 16.2804 43.4647 15.2046C43.4195 14.8682 43.3867 14.5359 43.3867 14.1994C43.3784 11.5038 43.3784 8.7957 43.3784 6.10006L43.3825 5.80101ZM42.1086 11.7239C42.1003 12.0978 42.0757 12.4716 42.0551 12.8454C41.9606 13.9668 41.9154 15.5576 41.0195 16.3759C40.4483 16.8909 39.725 17.0778 38.9771 17.1028C38.6442 17.1111 38.3072 17.1111 37.9743 17.0654C36.4003 16.8245 35.6688 16.1225 35.4058 14.3739C35.1058 12.3553 35.0812 10.3034 35.4387 8.28482C35.8086 6.1956 37.0825 5.45627 39.0634 5.59333C40.9127 5.72625 41.7387 6.95154 41.9565 8.69602C42.0757 9.69702 42.1332 10.7105 42.1086 11.7239ZM39.5935 11.3418C39.5935 10.6316 39.6099 9.91716 39.5853 9.2069C39.5688 8.7957 39.5154 8.38035 39.4291 7.97331C39.3305 7.50396 39.0346 7.27967 38.6647 7.28797C38.3031 7.29628 38.0483 7.52057 37.9168 7.95669C37.8716 8.11868 37.8223 8.28482 37.8223 8.44681C37.8223 9.55995 37.814 10.6772 37.8058 11.7904C37.7976 12.8288 37.6661 13.917 37.9907 14.9097C38.0894 15.2129 38.3442 15.379 38.6771 15.379C39.0017 15.379 39.2154 15.2171 39.3346 14.9263C39.4291 14.702 39.5113 14.457 39.5113 14.2161C39.5401 13.2607 39.5935 12.3013 39.5935 11.3418ZM31.7811 9.25259C31.999 8.17683 32.2044 7.12599 32.4305 6.07099C32.714 4.7294 33.0305 3.38781 33.3099 2.04207C33.3798 1.71394 33.5113 1.63502 33.8195 1.64333C34.4812 1.66825 35.1551 1.65164 35.862 1.65164C35.6318 2.50726 35.4058 3.32136 35.1839 4.12299C34.4812 6.64002 33.7784 9.16537 33.0839 11.6907C33.0305 11.8859 33.0058 12.0978 33.0058 12.3054C32.9976 13.6844 33.0058 15.0592 33.0058 16.4382V16.8868H30.5935C30.5853 16.7622 30.5688 16.6376 30.5688 16.513C30.5688 15.7321 30.5072 14.9471 30.577 14.1745C30.7538 12.3179 30.1702 10.6108 29.6976 8.88293C29.0729 6.59849 28.44 4.30574 27.8154 2.0213C27.7825 1.91331 27.7702 1.79701 27.7373 1.6641H30.199C30.7168 4.18529 31.2387 6.70648 31.7811 9.25259ZM78.9799 12.1476H74.821C74.8662 12.9908 74.8826 13.7924 74.9689 14.5857C75.0305 15.1381 75.3305 15.3749 75.8031 15.379C76.2963 15.3874 76.584 15.1381 76.699 14.5899C76.736 14.4113 76.7607 14.2327 76.7771 14.0499C76.7936 13.8879 76.8018 13.7135 76.8141 13.4809C77.5169 13.5183 78.2032 13.5598 78.8812 13.5889C79.2758 14.7726 78.5648 16.2928 77.3689 16.7622C76.4278 17.136 75.4621 17.136 74.5004 16.8494C73.7894 16.6376 73.2593 16.1807 73.021 15.4787C72.799 14.8225 72.5894 14.1371 72.5442 13.4518C72.421 11.7613 72.3757 10.0542 72.6305 8.35958C72.6757 8.07714 72.7538 7.80716 72.8401 7.53303C73.1853 6.40327 73.9374 5.70963 75.1004 5.59333C75.7333 5.53103 76.3867 5.55595 77.0114 5.66394C78.0223 5.84255 78.5607 6.57772 78.7949 7.54134C78.9018 7.99407 78.9799 8.45927 78.9963 8.92031C79.0004 9.97946 78.9799 11.0303 78.9799 12.1476ZM76.6169 10.6897C76.6169 9.85485 76.6251 9.06984 76.6086 8.28067C76.6086 8.09376 76.5388 7.89854 76.4689 7.71994C76.3292 7.37104 76.0374 7.27551 75.6881 7.27551C75.3388 7.27551 75.1168 7.45411 75.0305 7.77394C74.7675 8.7334 74.8538 9.71363 74.8621 10.698C75.4908 10.6897 76.0621 10.6897 76.6169 10.6897Z" fill="#1E1E1E"/>
<path d="M52.0038 3.687H49.5586V1.685H56.8572V3.67454H54.4284V16.8869H52.0079L52.0038 3.687Z" fill="#1E1E1E"/>
</svg>
