<svg width="23" height="23" viewBox="0 0 23 23" fill="none" xmlns="http://www.w3.org/2000/svg">
<path d="M6.14613 2.22741C5.12724 3.26517 5.12724 4.94445 6.165 5.9822L8.4292 8.2464C10.5613 10.3785 10.5613 13.8503 8.4292 15.9824L4.27816 11.8314C3.2121 10.7653 2.67436 9.35964 2.67436 7.96338C2.67436 6.56712 3.2121 5.16143 4.27816 4.09537L6.11782 2.25571C6.12726 2.24628 6.13669 2.23684 6.14613 2.22741Z" fill="#5D5FEF"/>
<path d="M7.95764 7.77356L6.16515 5.98107C5.1274 4.94331 5.11796 3.27347 6.14628 2.22627C7.16517 1.22625 8.78785 1.24512 9.79731 2.25458C10.3068 2.76402 10.5615 3.43385 10.5615 4.09424C10.5615 4.75463 10.3068 5.42446 9.79731 5.9339L9.37277 6.35844" fill="#5D5FEF"/>
<path d="M16.853 20.7646C17.8719 19.7269 17.8719 18.0476 16.8342 17.0098L14.57 14.7456C12.4378 12.6135 12.4378 9.14176 14.57 7.00964L18.721 11.1607C19.787 12.2267 20.3248 13.6324 20.3248 15.0287C20.3248 16.4249 19.787 17.8306 18.721 18.8967L16.8813 20.7363C16.8625 20.7552 16.853 20.7646 16.853 20.7646Z" fill="#5D5FEF"/>
<path d="M15.0319 15.2264L16.8244 17.0189C17.8621 18.0567 17.8715 19.7265 16.8432 20.7737C15.8243 21.7737 14.2017 21.7549 13.1922 20.7454C12.6828 20.236 12.428 19.5662 12.428 18.9058C12.428 18.2454 12.6828 17.5755 13.1922 17.0661L13.6262 16.6321" fill="#5D5FEF"/>
</svg>
